<?xml version="1.0" encoding="UTF-8" standalone="no"?>
<!DOCTYPE svg PUBLIC "-//W3C//DTD SVG 1.1//EN"
 "http://www.w3.org/Graphics/SVG/1.1/DTD/svg11.dtd">
<!-- Generated by graphviz version 12.0.0 (20240704.0754)
 -->
<!-- Title: G Pages: 1 -->
<svg width="1049pt" height="527pt"
 viewBox="0.00 0.00 1049.45 527.18" xmlns="http://www.w3.org/2000/svg" xmlns:xlink="http://www.w3.org/1999/xlink">
<g id="graph0" class="graph" transform="scale(1 1) rotate(0) translate(21.6 505.58)">
<title>G</title>
<polygon fill="#111111" stroke="none" points="-21.6,21.6 -21.6,-505.58 1027.85,-505.58 1027.85,21.6 -21.6,21.6"/>
<!-- ../lib/converters.ts -->
<g id="node1" class="node">
<title>../lib/converters.ts</title>
<path fill="none" stroke="#c6c5fe" d="M565.83,-412.47C565.83,-412.47 459.92,-412.47 459.92,-412.47 455.96,-412.47 452,-408.52 452,-404.56 452,-404.56 452,-396.64 452,-396.64 452,-392.68 455.96,-388.72 459.92,-388.72 459.92,-388.72 565.83,-388.72 565.83,-388.72 569.79,-388.72 573.75,-392.68 573.75,-396.64 573.75,-396.64 573.75,-404.56 573.75,-404.56 573.75,-408.52 569.79,-412.47 565.83,-412.47"/>
<text text-anchor="middle" x="512.88" y="-395.17" font-family="Arial" font-size="14.00" fill="#c6c5fe">../lib/converters.ts</text>
</g>
<!-- ../lib/definitions.ts -->
<g id="node2" class="node">
<title>../lib/definitions.ts</title>
<path fill="none" stroke="#cfffac" d="M998.33,-254.47C998.33,-254.47 894.67,-254.47 894.67,-254.47 890.71,-254.47 886.75,-250.52 886.75,-246.56 886.75,-246.56 886.75,-238.64 886.75,-238.64 886.75,-234.68 890.71,-230.72 894.67,-230.72 894.67,-230.72 998.33,-230.72 998.33,-230.72 1002.29,-230.72 1006.25,-234.68 1006.25,-238.64 1006.25,-238.64 1006.25,-246.56 1006.25,-246.56 1006.25,-250.52 1002.29,-254.47 998.33,-254.47"/>
<text text-anchor="middle" x="946.5" y="-237.17" font-family="Arial" font-size="14.00" fill="#cfffac">../lib/definitions.ts</text>
</g>
<!-- ../lib/converters.ts&#45;&gt;../lib/definitions.ts -->
<g id="edge1" class="edge">
<title>../lib/converters.ts&#45;&gt;../lib/definitions.ts</title>
<path fill="none" stroke="#757575" d="M574.22,-410.48C645.22,-418.98 764.36,-423.22 850.75,-374.6 894.35,-350.06 923.01,-296.17 936.51,-265.38"/>
<polygon fill="#757575" stroke="#757575" points="939.71,-266.78 940.35,-256.21 933.26,-264.08 939.71,-266.78"/>
</g>
<!-- ../lib/units.ts -->
<g id="node3" class="node">
<title>../lib/units.ts</title>
<path fill="none" stroke="#c6c5fe" d="M789.58,-451.47C789.58,-451.47 718.17,-451.47 718.17,-451.47 714.21,-451.47 710.25,-447.52 710.25,-443.56 710.25,-443.56 710.25,-435.64 710.25,-435.64 710.25,-431.68 714.21,-427.72 718.17,-427.72 718.17,-427.72 789.58,-427.72 789.58,-427.72 793.54,-427.72 797.5,-431.68 797.5,-435.64 797.5,-435.64 797.5,-443.56 797.5,-443.56 797.5,-447.52 793.54,-451.47 789.58,-451.47"/>
<text text-anchor="middle" x="753.88" y="-434.17" font-family="Arial" font-size="14.00" fill="#c6c5fe">../lib/units.ts</text>
</g>
<!-- ../lib/converters.ts&#45;&gt;../lib/units.ts -->
<g id="edge2" class="edge">
<title>../lib/converters.ts&#45;&gt;../lib/units.ts</title>
<path fill="none" stroke="#757575" d="M574.18,-410.44C612.53,-416.7 661.76,-424.73 698.83,-430.78"/>
<polygon fill="#757575" stroke="#757575" points="698,-434.19 708.43,-432.35 699.12,-427.28 698,-434.19"/>
</g>
<!-- ../lib/units.ts&#45;&gt;../lib/definitions.ts -->
<g id="edge3" class="edge">
<title>../lib/units.ts&#45;&gt;../lib/definitions.ts</title>
<path fill="none" stroke="#757575" d="M797.81,-435.39C815.66,-431.87 835.68,-425.41 850.75,-413.6 900.4,-374.68 927.9,-302.12 939.24,-265.3"/>
<polygon fill="#757575" stroke="#757575" points="942.47,-266.72 941.94,-256.14 935.76,-264.74 942.47,-266.72"/>
</g>
<!-- ../ui/button.tsx -->
<g id="node4" class="node">
<title>../ui/button.tsx</title>
<path fill="none" stroke="#c6c5fe" d="M554.96,-294.47C554.96,-294.47 470.79,-294.47 470.79,-294.47 466.83,-294.47 462.88,-290.52 462.88,-286.56 462.88,-286.56 462.88,-278.64 462.88,-278.64 462.88,-274.68 466.83,-270.72 470.79,-270.72 470.79,-270.72 554.96,-270.72 554.96,-270.72 558.92,-270.72 562.88,-274.68 562.88,-278.64 562.88,-278.64 562.88,-286.56 562.88,-286.56 562.88,-290.52 558.92,-294.47 554.96,-294.47"/>
<text text-anchor="middle" x="512.88" y="-277.17" font-family="Arial" font-size="14.00" fill="#c6c5fe">../ui/button.tsx</text>
</g>
<!-- ../ui/button.tsx&#45;&gt;../lib/definitions.ts -->
<g id="edge4" class="edge">
<title>../ui/button.tsx&#45;&gt;../lib/definitions.ts</title>
<path fill="none" stroke="#757575" d="M563.35,-279.86C629.12,-275.98 748.88,-268.04 850.75,-256.6 858.7,-255.71 867.01,-254.65 875.27,-253.53"/>
<polygon fill="#757575" stroke="#757575" points="875.53,-257.03 884.95,-252.18 874.56,-250.1 875.53,-257.03"/>
</g>
<!-- ../ui/worksheet/buttons/add&#45;row.tsx -->
<g id="node5" class="node">
<title>../ui/worksheet/buttons/add&#45;row.tsx</title>
<path fill="none" stroke="#c6c5fe" d="M339.83,-296.47C339.83,-296.47 131.92,-296.47 131.92,-296.47 127.96,-296.47 124,-292.52 124,-288.56 124,-288.56 124,-280.64 124,-280.64 124,-276.68 127.96,-272.72 131.92,-272.72 131.92,-272.72 339.83,-272.72 339.83,-272.72 343.79,-272.72 347.75,-276.68 347.75,-280.64 347.75,-280.64 347.75,-288.56 347.75,-288.56 347.75,-292.52 343.79,-296.47 339.83,-296.47"/>
<text text-anchor="middle" x="235.88" y="-279.17" font-family="Arial" font-size="14.00" fill="#c6c5fe">../ui/worksheet/buttons/add&#45;row.tsx</text>
</g>
<!-- ../ui/worksheet/buttons/add&#45;row.tsx&#45;&gt;../lib/definitions.ts -->
<g id="edge5" class="edge">
<title>../ui/worksheet/buttons/add&#45;row.tsx&#45;&gt;../lib/definitions.ts</title>
<path fill="none" stroke="#757575" d="M329.07,-296.93C353.62,-299.69 380.15,-302.21 404.75,-303.6 602.97,-314.78 657.71,-324.97 850.75,-278.6 870.3,-273.9 891.28,-266.22 908.52,-259.16"/>
<polygon fill="#757575" stroke="#757575" points="909.46,-262.56 917.32,-255.47 906.75,-256.11 909.46,-262.56"/>
</g>
<!-- ../ui/worksheet/buttons/add&#45;row.tsx&#45;&gt;../ui/button.tsx -->
<g id="edge6" class="edge">
<title>../ui/worksheet/buttons/add&#45;row.tsx&#45;&gt;../ui/button.tsx</title>
<path fill="none" stroke="#757575" d="M347.94,-283.79C383.23,-283.53 420.94,-283.26 451.28,-283.04"/>
<polygon fill="#757575" stroke="#757575" points="451.04,-286.54 461.01,-282.97 450.99,-279.54 451.04,-286.54"/>
</g>
<!-- ../ui/worksheet/buttons/check&#45;answers.tsx -->
<g id="node6" class="node">
<title>../ui/worksheet/buttons/check&#45;answers.tsx</title>
<path fill="none" stroke="#c6c5fe" d="M360.83,-372.47C360.83,-372.47 110.92,-372.47 110.92,-372.47 106.96,-372.47 103,-368.52 103,-364.56 103,-364.56 103,-356.64 103,-356.64 103,-352.68 106.96,-348.72 110.92,-348.72 110.92,-348.72 360.83,-348.72 360.83,-348.72 364.79,-348.72 368.75,-352.68 368.75,-356.64 368.75,-356.64 368.75,-364.56 368.75,-364.56 368.75,-368.52 364.79,-372.47 360.83,-372.47"/>
<text text-anchor="middle" x="235.88" y="-355.17" font-family="Arial" font-size="14.00" fill="#c6c5fe">../ui/worksheet/buttons/check&#45;answers.tsx</text>
</g>
<!-- ../ui/worksheet/buttons/check&#45;answers.tsx&#45;&gt;../lib/converters.ts -->
<g id="edge7" class="edge">
<title>../ui/worksheet/buttons/check&#45;answers.tsx&#45;&gt;../lib/converters.ts</title>
<path fill="none" stroke="#757575" d="M321.63,-372.93C359.81,-378.48 404.4,-384.97 440.8,-390.26"/>
<polygon fill="#757575" stroke="#757575" points="439.93,-393.67 450.33,-391.65 440.93,-386.74 439.93,-393.67"/>
</g>
<!-- ../ui/worksheet/buttons/check&#45;answers.tsx&#45;&gt;../lib/definitions.ts -->
<g id="edge8" class="edge">
<title>../ui/worksheet/buttons/check&#45;answers.tsx&#45;&gt;../lib/definitions.ts</title>
<path fill="none" stroke="#757575" d="M369.21,-368.83C496.46,-372.3 692.3,-365.8 850.75,-308.6 878.69,-298.51 906.03,-277.99 924.1,-262.49"/>
<polygon fill="#757575" stroke="#757575" points="926.35,-265.18 931.53,-255.93 921.72,-259.93 926.35,-265.18"/>
</g>
<!-- ../ui/worksheet/buttons/check&#45;answers.tsx&#45;&gt;../lib/units.ts -->
<g id="edge9" class="edge">
<title>../ui/worksheet/buttons/check&#45;answers.tsx&#45;&gt;../lib/units.ts</title>
<path fill="none" stroke="#757575" d="M263.2,-372.95C295.67,-387.52 352.93,-411.09 404.75,-421.6 506.93,-442.32 629.25,-443.31 698.32,-441.73"/>
<polygon fill="#757575" stroke="#757575" points="698.34,-445.23 708.25,-441.48 698.16,-438.24 698.34,-445.23"/>
</g>
<!-- ../ui/worksheet/buttons/check&#45;answers.tsx&#45;&gt;../ui/button.tsx -->
<g id="edge10" class="edge">
<title>../ui/worksheet/buttons/check&#45;answers.tsx&#45;&gt;../ui/button.tsx</title>
<path fill="none" stroke="#757575" d="M280.45,-348.24C328.42,-334.63 405.61,-312.74 457.51,-298.02"/>
<polygon fill="#757575" stroke="#757575" points="458.38,-301.41 467.05,-295.31 456.47,-294.68 458.38,-301.41"/>
</g>
<!-- ../ui/worksheet/buttons/remove&#45;row.tsx -->
<g id="node7" class="node">
<title>../ui/worksheet/buttons/remove&#45;row.tsx</title>
<path fill="none" stroke="#c6c5fe" d="M351.46,-254.47C351.46,-254.47 120.29,-254.47 120.29,-254.47 116.33,-254.47 112.38,-250.52 112.38,-246.56 112.38,-246.56 112.38,-238.64 112.38,-238.64 112.38,-234.68 116.33,-230.72 120.29,-230.72 120.29,-230.72 351.46,-230.72 351.46,-230.72 355.42,-230.72 359.38,-234.68 359.38,-238.64 359.38,-238.64 359.38,-246.56 359.38,-246.56 359.38,-250.52 355.42,-254.47 351.46,-254.47"/>
<text text-anchor="middle" x="235.88" y="-237.17" font-family="Arial" font-size="14.00" fill="#c6c5fe">../ui/worksheet/buttons/remove&#45;row.tsx</text>
</g>
<!-- ../ui/worksheet/buttons/remove&#45;row.tsx&#45;&gt;../lib/definitions.ts -->
<g id="edge11" class="edge">
<title>../ui/worksheet/buttons/remove&#45;row.tsx&#45;&gt;../lib/definitions.ts</title>
<path fill="none" stroke="#757575" d="M359.5,-242.6C508.59,-242.6 755.13,-242.6 875.3,-242.6"/>
<polygon fill="#757575" stroke="#757575" points="875.01,-246.1 885.01,-242.6 875.01,-239.1 875.01,-246.1"/>
</g>
<!-- ../ui/worksheet/buttons/remove&#45;row.tsx&#45;&gt;../ui/button.tsx -->
<g id="edge12" class="edge">
<title>../ui/worksheet/buttons/remove&#45;row.tsx&#45;&gt;../ui/button.tsx</title>
<path fill="none" stroke="#757575" d="M321.63,-254.93C363.71,-261.05 413.57,-268.3 451.68,-273.84"/>
<polygon fill="#757575" stroke="#757575" points="450.71,-277.24 461.11,-275.22 451.72,-270.31 450.71,-277.24"/>
</g>
<!-- ../ui/worksheet/correct&#45;answer.tsx -->
<g id="node8" class="node">
<title>../ui/worksheet/correct&#45;answer.tsx</title>
<path fill="none" stroke="#c6c5fe" d="M613.08,-214.47C613.08,-214.47 412.67,-214.47 412.67,-214.47 408.71,-214.47 404.75,-210.52 404.75,-206.56 404.75,-206.56 404.75,-198.64 404.75,-198.64 404.75,-194.68 408.71,-190.72 412.67,-190.72 412.67,-190.72 613.08,-190.72 613.08,-190.72 617.04,-190.72 621,-194.68 621,-198.64 621,-198.64 621,-206.56 621,-206.56 621,-210.52 617.04,-214.47 613.08,-214.47"/>
<text text-anchor="middle" x="512.88" y="-197.17" font-family="Arial" font-size="14.00" fill="#c6c5fe">../ui/worksheet/correct&#45;answer.tsx</text>
</g>
<!-- ../ui/worksheet/correct&#45;answer.tsx&#45;&gt;../lib/definitions.ts -->
<g id="edge13" class="edge">
<title>../ui/worksheet/correct&#45;answer.tsx&#45;&gt;../lib/definitions.ts</title>
<path fill="none" stroke="#757575" d="M621.39,-208.98C687.63,-213.39 774.24,-220.01 850.75,-228.6 858.7,-229.49 867.01,-230.54 875.27,-231.66"/>
<polygon fill="#757575" stroke="#757575" points="874.56,-235.1 884.95,-233.02 875.53,-228.17 874.56,-235.1"/>
</g>
<!-- ../ui/worksheet/dropdowns.tsx -->
<g id="node9" class="node">
<title>../ui/worksheet/dropdowns.tsx</title>
<path fill="none" stroke="#c6c5fe" d="M842.83,-176.47C842.83,-176.47 664.92,-176.47 664.92,-176.47 660.96,-176.47 657,-172.52 657,-168.56 657,-168.56 657,-160.64 657,-160.64 657,-156.68 660.96,-152.72 664.92,-152.72 664.92,-152.72 842.83,-152.72 842.83,-152.72 846.79,-152.72 850.75,-156.68 850.75,-160.64 850.75,-160.64 850.75,-168.56 850.75,-168.56 850.75,-172.52 846.79,-176.47 842.83,-176.47"/>
<text text-anchor="middle" x="753.88" y="-159.17" font-family="Arial" font-size="14.00" fill="#c6c5fe">../ui/worksheet/dropdowns.tsx</text>
</g>
<!-- ../ui/worksheet/dropdowns.tsx&#45;&gt;../lib/definitions.ts -->
<g id="edge14" class="edge">
<title>../ui/worksheet/dropdowns.tsx&#45;&gt;../lib/definitions.ts</title>
<path fill="none" stroke="#757575" d="M809.36,-176.97C823.08,-180.74 837.63,-185.31 850.75,-190.6 873.7,-199.85 898.14,-213.37 916.45,-224.3"/>
<polygon fill="#757575" stroke="#757575" points="914.55,-227.24 924.91,-229.44 918.18,-221.26 914.55,-227.24"/>
</g>
<!-- ../ui/worksheet/inputs.tsx -->
<g id="node10" class="node">
<title>../ui/worksheet/inputs.tsx</title>
<path fill="none" stroke="#c6c5fe" d="M586.83,-134.47C586.83,-134.47 438.92,-134.47 438.92,-134.47 434.96,-134.47 431,-130.52 431,-126.56 431,-126.56 431,-118.64 431,-118.64 431,-114.68 434.96,-110.72 438.92,-110.72 438.92,-110.72 586.83,-110.72 586.83,-110.72 590.79,-110.72 594.75,-114.68 594.75,-118.64 594.75,-118.64 594.75,-126.56 594.75,-126.56 594.75,-130.52 590.79,-134.47 586.83,-134.47"/>
<text text-anchor="middle" x="512.88" y="-117.17" font-family="Arial" font-size="14.00" fill="#c6c5fe">../ui/worksheet/inputs.tsx</text>
</g>
<!-- ../ui/worksheet/inputs.tsx&#45;&gt;../lib/definitions.ts -->
<g id="edge15" class="edge">
<title>../ui/worksheet/inputs.tsx&#45;&gt;../lib/definitions.ts</title>
<path fill="none" stroke="#757575" d="M595.15,-111.63C666.01,-105.71 769.83,-106.02 850.75,-143.6 886.65,-160.27 915.91,-197.09 931.99,-220.83"/>
<polygon fill="#757575" stroke="#757575" points="929.02,-222.67 937.42,-229.13 934.88,-218.84 929.02,-222.67"/>
</g>
<!-- ../ui/worksheet/results.tsx -->
<g id="node11" class="node">
<title>../ui/worksheet/results.tsx</title>
<path fill="none" stroke="#c6c5fe" d="M829.71,-96.47C829.71,-96.47 678.04,-96.47 678.04,-96.47 674.08,-96.47 670.12,-92.52 670.12,-88.56 670.12,-88.56 670.12,-80.64 670.12,-80.64 670.12,-76.68 674.08,-72.72 678.04,-72.72 678.04,-72.72 829.71,-72.72 829.71,-72.72 833.67,-72.72 837.62,-76.68 837.62,-80.64 837.62,-80.64 837.62,-88.56 837.62,-88.56 837.62,-92.52 833.67,-96.47 829.71,-96.47"/>
<text text-anchor="middle" x="753.88" y="-79.17" font-family="Arial" font-size="14.00" fill="#c6c5fe">../ui/worksheet/results.tsx</text>
</g>
<!-- ../ui/worksheet/results.tsx&#45;&gt;../lib/definitions.ts -->
<g id="edge16" class="edge">
<title>../ui/worksheet/results.tsx&#45;&gt;../lib/definitions.ts</title>
<path fill="none" stroke="#757575" d="M823.47,-96.97C833.12,-100.44 842.53,-104.9 850.75,-110.6 891.44,-138.83 920.89,-190.42 935.37,-220.06"/>
<polygon fill="#757575" stroke="#757575" points="932.1,-221.33 939.53,-228.88 938.43,-218.34 932.1,-221.33"/>
</g>
<!-- page.tsx -->
<g id="node12" class="node">
<title>page.tsx</title>
<path fill="none" stroke="#c6c5fe" d="M59.08,-214.47C59.08,-214.47 7.92,-214.47 7.92,-214.47 3.96,-214.47 0,-210.52 0,-206.56 0,-206.56 0,-198.64 0,-198.64 0,-194.68 3.96,-190.72 7.92,-190.72 7.92,-190.72 59.08,-190.72 59.08,-190.72 63.04,-190.72 67,-194.68 67,-198.64 67,-198.64 67,-206.56 67,-206.56 67,-210.52 63.04,-214.47 59.08,-214.47"/>
<text text-anchor="middle" x="33.5" y="-197.17" font-family="Arial" font-size="14.00" fill="#c6c5fe">page.tsx</text>
</g>
<!-- page.tsx&#45;&gt;../lib/definitions.ts -->
<g id="edge17" class="edge">
<title>page.tsx&#45;&gt;../lib/definitions.ts</title>
<path fill="none" stroke="#757575" d="M36.37,-190.34C41.36,-162.47 57.83,-94.59 103,-66.6 244.24,20.94 708.4,22.12 850.75,-63.6 907.68,-97.88 932.19,-179.11 941.13,-219.28"/>
<polygon fill="#757575" stroke="#757575" points="937.7,-219.98 943.15,-229.07 944.55,-218.56 937.7,-219.98"/>
</g>
<!-- page.tsx&#45;&gt;../lib/units.ts -->
<g id="edge18" class="edge">
<title>page.tsx&#45;&gt;../lib/units.ts</title>
<path fill="none" stroke="#757575" d="M35.31,-214.84C38.17,-247.43 50.64,-336.85 103,-381.6 275.86,-529.32 577.2,-481.04 699.26,-453.31"/>
<polygon fill="#757575" stroke="#757575" points="699.73,-456.79 708.68,-451.12 698.15,-449.98 699.73,-456.79"/>
</g>
<!-- page.tsx&#45;&gt;../ui/worksheet/buttons/add&#45;row.tsx -->
<g id="edge19" class="edge">
<title>page.tsx&#45;&gt;../ui/worksheet/buttons/add&#45;row.tsx</title>
<path fill="none" stroke="#757575" d="M44.22,-214.7C56.36,-228.91 78.54,-252 103,-263.6 106.78,-265.39 110.69,-267.04 114.68,-268.55"/>
<polygon fill="#757575" stroke="#757575" points="113.4,-271.81 124,-271.74 115.67,-265.19 113.4,-271.81"/>
</g>
<!-- page.tsx&#45;&gt;../ui/worksheet/buttons/check&#45;answers.tsx -->
<g id="edge20" class="edge">
<title>page.tsx&#45;&gt;../ui/worksheet/buttons/check&#45;answers.tsx</title>
<path fill="none" stroke="#757575" d="M39.68,-214.77C49.27,-235.94 71.68,-279.78 103,-305.6 124.34,-323.2 152.11,-335.9 176.66,-344.63"/>
<polygon fill="#757575" stroke="#757575" points="175.28,-347.86 185.88,-347.76 177.54,-341.23 175.28,-347.86"/>
</g>
<!-- page.tsx&#45;&gt;../ui/worksheet/buttons/remove&#45;row.tsx -->
<g id="edge21" class="edge">
<title>page.tsx&#45;&gt;../ui/worksheet/buttons/remove&#45;row.tsx</title>
<path fill="none" stroke="#757575" d="M67.24,-209.34C78.57,-211.66 91.34,-214.26 103,-216.6 121.66,-220.34 141.81,-224.34 160.61,-228.05"/>
<polygon fill="#757575" stroke="#757575" points="159.83,-231.46 170.32,-229.96 161.18,-224.6 159.83,-231.46"/>
</g>
<!-- page.tsx&#45;&gt;../ui/worksheet/correct&#45;answer.tsx -->
<g id="edge22" class="edge">
<title>page.tsx&#45;&gt;../ui/worksheet/correct&#45;answer.tsx</title>
<path fill="none" stroke="#757575" d="M67.31,-202.6C133.43,-202.6 285.57,-202.6 393.41,-202.6"/>
<polygon fill="#757575" stroke="#757575" points="393.17,-206.1 403.17,-202.6 393.17,-199.1 393.17,-206.1"/>
</g>
<!-- page.tsx&#45;&gt;../ui/worksheet/dropdowns.tsx -->
<g id="edge23" class="edge">
<title>page.tsx&#45;&gt;../ui/worksheet/dropdowns.tsx</title>
<path fill="none" stroke="#757575" d="M67.25,-200.67C78.57,-200.01 91.34,-199.27 103,-198.6 237.1,-190.91 270.61,-188.65 404.75,-181.6 485.46,-177.36 576.71,-172.91 645.54,-169.63"/>
<polygon fill="#757575" stroke="#757575" points="645.49,-173.14 655.31,-169.17 645.15,-166.15 645.49,-173.14"/>
</g>
<!-- page.tsx&#45;&gt;../ui/worksheet/inputs.tsx -->
<g id="edge24" class="edge">
<title>page.tsx&#45;&gt;../ui/worksheet/inputs.tsx</title>
<path fill="none" stroke="#757575" d="M45.24,-190.6C57.69,-177.62 79.52,-157.58 103,-148.6 205.89,-109.22 333.94,-107.97 419.05,-113.13"/>
<polygon fill="#757575" stroke="#757575" points="418.79,-116.62 429,-113.78 419.24,-109.64 418.79,-116.62"/>
</g>
<!-- page.tsx&#45;&gt;../ui/worksheet/results.tsx -->
<g id="edge25" class="edge">
<title>page.tsx&#45;&gt;../ui/worksheet/results.tsx</title>
<path fill="none" stroke="#757575" d="M38.98,-190.41C47.59,-168.96 68.72,-124.99 103,-106.6 196.29,-56.55 501.71,-68.03 658.36,-77.74"/>
<polygon fill="#757575" stroke="#757575" points="658.12,-81.24 668.32,-78.37 658.56,-74.25 658.12,-81.24"/>
</g>
</g>
</svg>
